<?xml version="1.0" standalone="no"?>
<!DOCTYPE svg PUBLIC "-//W3C//DTD SVG 20010904//EN"
 "http://www.w3.org/TR/2001/REC-SVG-20010904/DTD/svg10.dtd">
<svg version="1.0" xmlns="http://www.w3.org/2000/svg"
 width="612.000000pt" height="471.000000pt" viewBox="0 0 612.000000 471.000000"
 preserveAspectRatio="xMidYMid meet">
<metadata>
Created by potrace 1.16, written by Peter Selinger 2001-2019
</metadata>
<g transform="translate(0.000000,471.000000) scale(0.100000,-0.100000)"
fill="#000000" stroke="none">
<path d="M2792 3961 c-23 -21 -42 -43 -42 -47 0 -5 9 2 20 16 10 14 22 21 26
17 4 -4 -1 -16 -11 -27 -14 -16 -15 -20 -4 -20 8 0 25 -7 37 -16 23 -16 23
-17 5 -37 -12 -15 -13 -18 -2 -10 12 10 23 10 47 1 36 -14 37 -31 2 -36 -18
-3 -22 0 -16 15 6 17 6 17 -8 -1 -8 -10 -18 -16 -23 -13 -5 3 -24 -8 -42 -24
-19 -16 -37 -29 -41 -29 -13 0 -40 48 -40 70 0 25 -31 27 -55 4 -12 -13 -15
-26 -10 -57 6 -35 5 -39 -9 -34 -10 4 -15 3 -11 -3 3 -6 21 -10 40 -10 19 0
37 -5 40 -10 6 -10 -44 -100 -56 -100 -3 0 -21 15 -40 33 -29 28 -37 31 -47
20 -7 -7 -17 -13 -22 -13 -15 0 -12 37 3 43 9 4 9 6 -1 6 -7 1 -14 -5 -16 -11
-2 -7 -8 -28 -14 -45 -18 -56 -8 -69 53 -69 63 1 73 -6 55 -39 -18 -34 -13
-38 55 -50 28 -5 28 -4 -3 5 -36 12 -51 35 -33 53 18 18 13 26 -28 43 -29 11
-38 20 -34 32 4 15 3 15 -6 2 -8 -11 -13 -12 -22 -3 -15 15 -2 34 19 31 9 -2
31 -13 49 -25 37 -27 53 -29 53 -8 0 8 4 15 9 15 5 0 11 9 14 21 3 12 10 18
17 14 13 -8 4 -43 -17 -67 -26 -30 -11 -43 49 -43 55 0 55 0 39 22 -13 17 -18
18 -24 7 -4 -8 -13 -14 -18 -14 -6 0 -7 5 -4 10 3 6 1 10 -4 10 -6 0 -11 -7
-11 -15 0 -8 -7 -15 -16 -15 -11 0 -14 5 -10 16 3 9 6 18 6 20 0 2 6 4 14 4 9
0 12 7 9 19 -3 10 0 22 7 26 8 5 6 11 -6 19 -10 8 -14 18 -10 25 6 9 12 9 24
-1 10 -7 4 2 -12 19 -19 21 -26 38 -22 49 6 15 12 13 44 -17 20 -19 31 -27 25
-19 -18 20 -16 30 7 30 11 0 25 9 32 20 18 28 45 25 79 -9 33 -33 34 -33 17 4
-9 20 -9 28 1 38 9 9 14 9 21 -3 6 -10 7 -3 4 22 -6 36 -6 37 37 48 23 6 53
10 66 7 19 -3 23 0 23 19 0 13 9 28 20 34 18 10 20 7 21 -32 1 -24 3 -35 6
-25 4 14 11 17 26 13 12 -3 28 -6 35 -6 7 0 10 -5 7 -10 -4 -7 3 -9 22 -5 21
5 24 4 13 -4 -19 -13 -9 -14 24 -1 20 7 27 19 32 50 8 47 20 58 41 37 12 -12
13 -19 3 -37 -18 -34 -8 -30 27 10 l32 36 -29 -4 c-22 -3 -32 1 -37 14 -5 11
-17 20 -28 21 -18 2 -20 -4 -20 -52 0 -29 -2 -56 -5 -59 -9 -9 -140 25 -140
36 0 6 10 27 22 47 19 32 20 34 2 19 -15 -13 -23 -14 -39 -6 -18 10 -19 10 -6
-5 11 -14 11 -18 -3 -23 -26 -10 -30 3 -12 31 16 24 16 25 -4 25 -27 0 -60
-18 -60 -32 0 -6 9 -3 20 7 11 10 22 16 25 13 10 -10 -7 -38 -23 -38 -13 0
-12 -3 3 -20 24 -26 14 -34 -59 -50 -58 -12 -61 -12 -80 11 -11 15 -17 17 -13
7 9 -25 -19 -44 -31 -22 -11 20 5 67 19 58 5 -3 9 10 8 28 0 30 -1 31 -9 11
-5 -13 -14 -23 -20 -23 -6 0 -9 -4 -6 -9 3 -5 -1 -14 -8 -20 -9 -8 -16 -8 -20
-2 -4 5 -2 12 4 16 5 3 10 15 10 25 0 10 8 24 18 29 9 6 12 11 7 11 -6 0 -29
-17 -53 -39z"/>
<path d="M3530 3821 c0 -5 -3 -16 -6 -25 -4 -10 -1 -16 9 -16 30 0 24 -35 -12
-67 -34 -31 -34 -32 -18 -57 26 -39 22 -56 -13 -51 -23 3 -30 0 -30 -13 0 -15
-2 -15 -10 -2 -5 8 -10 10 -10 5 0 -6 6 -17 13 -24 6 -8 7 -11 2 -8 -6 3 -22
-4 -35 -15 l-25 -20 26 15 c26 16 27 16 31 -13 2 -16 2 -27 -1 -25 -4 2 -14
-2 -23 -9 -11 -8 -14 -17 -7 -27 7 -11 9 -11 9 3 0 26 24 17 31 -12 l7 -25 1
28 c1 26 14 36 25 18 4 -5 19 -3 35 5 38 19 98 27 106 14 3 -5 2 -17 -3 -26
-8 -14 -10 -14 -21 0 -20 24 -81 -5 -81 -39 0 -5 5 -3 11 5 8 11 9 0 5 -42 -5
-48 -3 -61 12 -76 10 -10 27 -18 36 -16 30 4 31 14 2 14 -27 0 -28 2 -24 43 3
23 1 52 -4 65 -5 15 -4 21 2 17 6 -3 10 -1 10 5 0 10 15 8 57 -7 6 -3 13 6 15
19 4 28 24 21 21 -7 -3 -19 -2 -19 8 -2 8 13 7 22 -1 32 -6 8 -9 19 -5 25 8
12 -20 60 -35 60 -6 0 -23 -15 -39 -32 l-30 -33 -10 28 c-6 16 -11 35 -11 42
0 8 -11 34 -25 59 -14 25 -25 48 -25 51 0 12 72 36 91 30 16 -5 15 -2 -7 20
-14 14 -24 28 -22 30 7 8 47 -7 51 -19 2 -6 2 0 0 14 -6 32 -41 70 -65 70 -10
0 -18 -4 -18 -9z"/>
<path d="M1315 3530 c-15 -16 -17 -26 -9 -47 8 -24 61 -65 75 -57 3 2 6 -2 6
-9 0 -7 16 -38 36 -71 40 -65 38 -82 -13 -141 -35 -41 -57 -41 -53 -1 2 28 2
28 -5 6 -6 -20 -15 -26 -45 -28 -33 -3 -37 -1 -37 20 0 39 14 52 51 45 32 -6
33 -6 15 8 -21 16 -55 11 -68 -9 -4 -6 -8 -26 -8 -43 0 -34 8 -39 75 -45 17
-2 29 -8 28 -15 -2 -6 5 -11 15 -10 21 1 82 -42 82 -58 0 -6 12 -10 28 -9 38
2 37 2 16 26 l-19 21 35 -6 c28 -5 31 -4 17 4 -10 6 -30 8 -43 5 -17 -5 -33 0
-51 14 -14 11 -28 18 -32 16 -4 -3 -8 5 -8 17 -3 29 62 91 88 84 10 -3 16 -1
13 4 -3 5 9 16 27 23 l32 14 -41 7 c-23 3 -47 3 -53 -1 -9 -5 -10 -2 -6 9 4
10 0 20 -11 26 -9 6 -14 11 -9 11 4 0 -6 24 -23 54 -25 44 -29 58 -21 79 8 20
6 31 -10 51 -25 31 -50 33 -74 6z"/>
<path d="M1899 3513 c-20 -5 -41 -50 -34 -72 7 -24 -65 -141 -95 -153 -24 -9
-54 -7 -95 8 -16 6 -18 4 -8 -6 7 -7 24 -14 38 -16 14 -1 32 -10 41 -18 8 -9
21 -16 27 -16 7 0 3 7 -7 15 -17 13 -18 15 -2 21 21 8 46 -13 46 -40 0 -17 -2
-18 -10 -6 -6 10 -10 11 -10 3 0 -7 14 -19 30 -28 39 -20 38 -45 -5 -72 -25
-17 -43 -21 -65 -17 -31 7 -60 -8 -60 -30 0 -6 5 -3 11 7 11 18 44 23 54 8 3
-5 1 -12 -5 -16 -16 -10 -12 -25 5 -19 18 7 20 -7 3 -24 -17 -17 -45 -15 -57
6 -6 9 -11 12 -11 6 0 -15 22 -34 40 -34 23 0 48 22 52 45 4 23 76 75 94 68 7
-3 18 -20 25 -40 6 -19 13 -32 15 -30 3 2 0 16 -5 29 -9 23 -7 26 19 32 53 10
50 71 -4 97 -21 10 -21 10 -1 -6 11 -9 19 -26 18 -38 -3 -21 -2 -21 6 -2 9 20
10 20 10 -1 1 -32 -25 -49 -57 -38 -33 12 -40 39 -16 65 20 22 8 26 -15 5 -26
-24 -52 3 -54 56 -1 34 6 54 33 95 29 43 40 52 66 52 37 1 54 17 54 52 0 36
-33 60 -71 52z"/>
<path d="M3405 3419 c-4 -6 -13 -8 -20 -5 -7 2 -16 -2 -19 -10 -3 -9 -10 -13
-15 -9 -5 3 -13 0 -17 -6 -3 -6 -1 -15 6 -19 17 -11 4 -44 -14 -37 -8 3 -17
-1 -20 -9 -3 -8 -1 -12 4 -9 5 3 18 1 27 -5 16 -10 16 -11 -2 -5 -11 3 -16 2
-11 -2 8 -9 20 -10 110 -18 32 -2 61 -6 63 -9 12 -11 -11 -26 -40 -26 l-32 0
29 -23 c17 -14 26 -28 22 -36 -4 -6 -11 -9 -16 -6 -5 3 -17 -6 -28 -20 -21
-26 -37 -33 -29 -12 3 8 -6 12 -23 13 -21 1 -27 -3 -23 -13 8 -20 -16 -34 -37
-21 -12 8 -22 7 -36 -1 -18 -11 -17 -12 4 -6 13 4 22 2 22 -4 0 -6 -4 -11 -8
-11 -5 0 -17 -7 -28 -15 -17 -14 -15 -14 14 0 28 14 33 14 38 1 9 -24 -6 -38
-36 -34 -17 3 -27 -1 -27 -9 0 -6 4 -10 8 -7 4 2 10 0 14 -6 7 -11 -5 -13 -29
-4 -9 3 -13 10 -10 15 3 5 1 9 -4 9 -5 0 -13 10 -17 23 -6 19 -8 20 -12 4 -3
-10 2 -26 11 -36 19 -21 21 -47 3 -54 -19 -7 -37 16 -37 48 0 10 -9 15 -27 14
l-28 -1 25 -8 c14 -4 18 -9 10 -9 -13 -1 -13 -2 0 -12 12 -8 10 -9 -10 -7 -32
4 -42 53 -13 61 11 3 6 5 -12 6 -23 1 -27 3 -15 11 13 8 12 10 -2 10 -10 0
-19 8 -19 18 -1 9 -4 1 -8 -18 -7 -39 -36 -50 -36 -13 0 12 -3 25 -7 29 -5 4
-8 -1 -8 -11 0 -10 -5 -34 -12 -52 -10 -28 -10 -36 4 -50 14 -13 20 -14 32 -4
13 11 17 11 22 -2 5 -15 44 -12 44 3 0 4 12 5 27 2 25 -5 25 -6 8 -13 -19 -7
-19 -8 -1 -8 12 -1 16 -6 12 -17 -3 -9 -6 -19 -6 -24 0 -4 -13 -6 -30 -4 -30
4 -30 3 -30 -46 0 -43 -3 -50 -20 -50 -11 0 -20 7 -20 15 0 8 5 15 11 15 5 0
7 5 4 10 -3 6 -2 10 3 10 11 0 4 39 -10 57 -7 8 -1 10 21 7 17 -3 39 0 48 5
17 10 16 11 -2 9 -11 -2 -41 1 -67 5 -35 6 -54 4 -77 -7 -38 -20 -37 -20 -37
7 0 19 5 23 26 20 23 -3 19 0 -20 14 -12 4 -11 7 5 13 14 6 15 9 5 10 -10 1
-9 4 5 10 19 8 19 9 -3 9 -17 1 -24 -6 -28 -29 -4 -16 -10 -30 -14 -30 -4 0
-7 -8 -6 -17 0 -10 -6 -18 -14 -18 -8 0 -18 -4 -21 -9 -8 -11 -39 -1 -39 13 0
5 10 11 23 13 12 2 22 9 22 16 0 7 7 17 15 22 8 5 11 10 7 10 -4 0 -3 9 2 19
8 14 7 20 -4 24 -10 4 -12 1 -8 -10 4 -11 2 -14 -5 -9 -8 5 -10 1 -5 -11 6
-16 5 -16 -10 -4 -9 7 -14 18 -10 24 3 6 1 7 -5 3 -9 -5 -8 -12 0 -26 9 -14
10 -22 1 -31 -8 -8 -14 -3 -23 18 -7 15 -27 39 -44 53 -30 23 -30 23 -11 1 24
-28 24 -24 5 -47 -36 -45 -52 -94 -31 -94 5 0 12 -8 15 -17 2 -10 2 -2 -1 18
-2 20 0 46 6 57 9 17 14 19 36 9 16 -8 23 -18 20 -28 -10 -30 51 -56 73 -32 7
7 17 13 22 13 16 0 11 -18 -7 -29 -10 -6 -13 -11 -7 -11 6 0 17 7 24 15 8 9
21 13 34 10 17 -5 18 -4 6 4 -13 10 -13 11 0 12 29 2 55 -3 65 -13 7 -7 3 -8
-12 -4 -12 4 -24 2 -29 -5 -4 -7 -3 -9 4 -6 16 11 42 -3 42 -22 0 -9 -9 -34
-21 -55 -15 -29 -18 -41 -9 -50 8 -8 9 -6 5 6 -9 23 23 37 36 17 13 -21 11
-29 -8 -30 -10 0 -5 -4 10 -9 37 -11 54 -4 64 27 7 19 4 37 -10 65 -21 42 -19
50 16 54 12 1 25 3 29 3 4 1 5 8 2 16 -6 15 33 37 49 28 15 -9 6 -34 -15 -42
l-22 -8 22 -5 c12 -4 22 -2 22 2 0 5 7 16 16 24 8 9 11 16 5 16 -6 0 -11 9
-11 20 0 13 7 20 20 20 24 0 26 -23 6 -62 -12 -22 -12 -26 0 -21 18 7 29 -39
14 -66 -9 -17 -8 -22 4 -27 9 -3 21 -4 28 -1 7 3 2 6 -12 6 -17 1 -21 4 -13
12 8 8 17 8 32 0 24 -13 54 -2 70 27 8 14 1 25 -37 59 -46 40 -46 42 -27 56
11 8 40 31 65 50 l44 36 15 -22 c8 -12 18 -40 21 -62 3 -28 10 -40 23 -41 12
-1 13 -1 2 3 -19 6 -19 17 1 34 14 11 18 11 28 -3 12 -16 15 -16 35 -2 35 25
25 66 -18 75 -18 4 -43 16 -54 28 l-21 21 22 29 c12 17 22 34 22 38 0 5 10 13
23 18 14 7 22 19 23 36 1 14 4 31 8 37 8 13 -30 36 -44 27 -6 -3 -10 2 -10 11
0 17 -1 17 -13 1 -19 -27 -59 -16 -68 17 -4 15 -6 33 -3 41 3 7 -2 20 -11 29
-9 9 -13 20 -10 26 3 5 4 10 1 10 -3 0 -8 -5 -11 -11z"/>
<path d="M2476 3371 c-9 -15 6 -100 19 -111 10 -8 23 -4 50 15 47 31 75 33 75
4 0 -11 9 -34 21 -50 l21 -29 -36 -15 c-19 -8 -45 -14 -58 -12 -27 3 -38 -32
-14 -45 9 -5 16 -17 16 -26 -1 -15 -2 -15 -15 2 -8 11 -15 15 -15 9 0 -12 33
-43 47 -43 6 0 8 12 6 28 -4 26 -4 26 11 8 9 -11 17 -18 18 -15 2 2 8 13 14
23 16 30 33 31 43 3 6 -15 21 -27 38 -32 30 -7 53 -23 53 -36 0 -4 -22 -22
-50 -40 -27 -18 -50 -35 -50 -38 0 -4 19 -5 43 -2 35 4 38 5 17 11 -24 6 -24
7 -4 13 11 4 30 20 42 36 18 24 19 30 7 35 -8 3 -15 10 -15 16 0 6 6 8 13 4 8
-5 7 -2 -2 10 -11 12 -11 20 -3 28 9 9 17 7 33 -8 22 -18 21 -18 -1 13 -21 29
-24 31 -36 16 -10 -15 -14 -15 -28 -4 -19 16 -21 34 -4 29 7 -3 17 -1 23 4 5
5 19 16 30 24 19 14 19 15 -3 4 -13 -6 -30 -9 -38 -6 -9 4 -12 2 -8 -5 4 -7
-1 -10 -11 -7 -10 1 -20 9 -23 17 -3 8 0 11 5 8 5 -3 9 3 9 13 0 10 -4 17 -8
14 -4 -2 -11 4 -17 13 -6 10 -11 13 -11 6 0 -6 4 -14 9 -18 5 -3 8 -18 7 -33
-2 -15 1 -30 7 -33 5 -4 7 -15 3 -24 -5 -14 -9 -15 -22 -5 -8 7 -13 19 -10 27
3 7 1 13 -5 13 -6 0 -9 7 -5 15 3 9 -2 24 -12 35 -9 11 -19 35 -22 53 -5 30
-7 32 -40 29 -27 -2 -38 2 -48 18 -10 16 -10 20 0 21 7 0 4 4 -7 9 -30 13 -36
12 -33 -6 2 -10 -3 -19 -11 -22 -10 -3 -13 2 -9 22 5 27 3 33 -6 17z"/>
<path d="M1346 3098 c-9 -12 -16 -29 -16 -36 0 -8 -9 -27 -21 -43 -20 -28 -24
-29 -100 -29 -67 0 -82 3 -96 20 -10 11 -21 20 -26 20 -5 0 -1 -7 8 -16 22
-23 15 -49 -14 -49 -33 0 -52 32 -28 49 23 18 22 29 -2 16 -25 -13 -35 -44
-22 -68 12 -23 67 -25 81 -3 11 18 175 17 197 -1 15 -12 23 -28 37 -75 9 -30
-40 -57 -88 -48 -52 10 -81 -29 -56 -76 16 -29 78 -27 89 4 5 12 7 25 4 29 -2
5 11 17 31 28 34 21 50 43 38 54 -3 4 -7 14 -8 23 -5 31 -26 73 -35 67 -5 -3
-9 5 -9 18 1 25 23 61 33 52 3 -3 3 3 0 15 -3 13 -1 21 6 21 7 0 9 5 5 11 -3
6 0 15 7 20 7 4 11 11 7 14 -3 4 -13 -4 -22 -17z"/>
<path d="M1628 2918 c27 -13 39 -53 22 -73 -16 -19 -30 -19 -30 -1 0 8 -5 18
-11 22 -8 5 -10 -1 -7 -19 4 -23 3 -25 -13 -16 -11 5 -19 17 -20 27 0 11 -2
13 -6 4 -3 -7 5 -24 18 -38 16 -17 18 -24 8 -24 -11 -1 -10 -3 2 -10 13 -8 15
-17 9 -45 -7 -29 -5 -35 11 -40 30 -10 42 -41 23 -59 -27 -28 -68 -18 -77 19
-4 19 -5 19 -6 -2 -3 -52 66 -72 95 -28 15 23 15 27 0 50 -16 24 -15 24 17 30
49 9 146 12 144 4 -1 -4 15 -30 36 -58 20 -28 37 -55 37 -61 0 -6 11 -8 28 -4
35 9 41 14 15 14 -15 0 -36 20 -67 64 -51 71 -51 87 -4 148 29 37 30 37 56 21
15 -9 32 -22 38 -29 8 -10 13 -9 21 5 8 13 8 18 -1 18 -17 0 -66 34 -66 46 0
5 -23 -14 -50 -44 -28 -30 -56 -53 -61 -51 -6 1 -8 -1 -5 -6 3 -5 -8 -19 -24
-30 -31 -24 -45 -28 -35 -12 8 12 -7 13 -20 1 -6 -5 -29 -11 -52 -15 l-42 -6
6 42 c3 27 15 51 29 65 30 28 31 67 2 87 -12 9 -27 16 -33 15 -5 0 0 -5 13
-11z"/>
<path d="M4609 2398 c0 -2 -2 -11 -4 -22 -13 -68 -28 -115 -36 -110 -21 12
-49 -8 -49 -35 0 -25 -2 -27 -37 -23 -21 3 -41 10 -45 16 -5 6 -8 3 -8 -10 0
-29 8 -34 37 -21 18 8 29 8 43 -1 14 -9 20 -8 23 1 10 22 7 -48 -3 -91 -7 -28
-7 -49 0 -60 7 -13 9 -9 10 21 0 23 5 37 13 37 9 0 8 3 -2 9 -8 5 -10 14 -5
22 4 7 9 25 10 38 2 14 8 35 13 46 6 11 18 46 27 78 21 79 28 67 9 -16 -14
-61 -11 -133 4 -108 4 6 12 7 21 1 12 -7 13 -13 3 -27 -6 -10 -16 -17 -22 -16
-6 2 -8 -4 -4 -13 5 -14 9 -13 24 7 l19 24 1 -25 c1 -17 3 -20 6 -7 6 25 28
21 47 -8 9 -14 22 -25 28 -25 6 0 -5 15 -24 34 l-35 34 24 43 c13 24 28 51 35
60 14 21 4 50 -16 43 -18 -7 -37 -59 -29 -81 4 -11 3 -14 -5 -9 -8 5 -10 1 -5
-10 4 -11 3 -15 -4 -11 -7 5 -9 0 -6 -12 3 -10 -1 -22 -8 -27 -9 -5 -11 -2 -6
8 4 11 -3 20 -23 28 -26 11 -28 15 -23 48 3 21 12 60 20 87 20 72 20 79 1 83
-10 2 -18 2 -19 0z"/>
<path d="M1390 2250 c23 -7 23 -8 3 -9 -12 -1 -24 -7 -26 -13 -4 -10 -8 -9
-16 2 -6 8 -11 10 -11 4 0 -6 7 -17 16 -24 36 -30 35 -47 -1 -69 -34 -20 -35
-20 -45 -1 -5 10 -10 26 -10 34 0 17 -12 21 -24 9 -9 -9 -34 -15 -66 -15 -14
0 -19 -3 -12 -5 6 -3 9 -10 5 -16 -4 -7 -8 -14 -9 -17 -4 -22 -19 -40 -33 -41
-9 -1 1 -6 22 -11 38 -10 46 -25 25 -46 -9 -9 -16 -8 -32 5 -12 9 -1 -4 24
-30 47 -49 70 -59 70 -30 0 12 -3 14 -11 6 -8 -8 -16 -6 -31 9 l-20 20 24 23
c23 21 80 55 93 55 3 0 5 -11 5 -25 0 -18 -7 -26 -25 -31 -14 -3 -25 -9 -26
-13 -1 -3 -2 -24 -3 -45 -2 -22 -10 -44 -19 -51 -29 -21 -19 -43 29 -65 60
-26 68 -25 60 5 -5 18 -1 27 13 35 11 5 22 10 25 10 13 0 5 -58 -9 -70 -25
-20 -17 -37 27 -60 l42 -22 26 31 c14 17 31 31 39 31 9 0 11 7 6 23 -3 12 -7
28 -7 35 -1 8 -8 10 -22 5 -12 -4 -33 -7 -49 -8 -17 0 -26 -4 -23 -12 3 -7 1
-15 -4 -18 -9 -6 -15 48 -11 83 1 8 -6 20 -16 28 -10 7 -13 14 -6 14 13 0 5
40 -8 40 -5 0 -14 21 -20 46 -13 49 -12 49 -77 23 -24 -10 -37 -11 -50 -3 -26
17 -22 48 7 52 16 3 20 6 12 11 -9 6 -8 11 4 21 13 10 15 9 16 -6 0 -15 2 -14
10 6 l11 25 15 -37 c16 -39 46 -51 57 -23 3 8 11 15 17 15 8 0 7 -5 -2 -16
-11 -14 -10 -19 7 -33 11 -9 26 -25 32 -36 6 -11 12 -14 12 -7 0 7 5 10 10 7
6 -3 10 3 10 14 0 27 35 28 50 2 15 -28 12 -41 -7 -40 -11 0 -13 3 -5 6 6 2
12 8 12 13 0 5 -13 2 -30 -6 -34 -17 -37 -26 -15 -44 9 -7 13 -21 10 -31 -8
-24 25 -43 40 -23 6 8 30 15 58 16 l49 2 -5 32 c-3 17 -1 36 5 42 6 6 7 15 4
21 -14 22 -23 10 -21 -29 3 -46 -19 -66 -60 -56 -14 4 -27 0 -35 -9 -20 -24
-30 -17 -23 15 4 23 2 30 -11 30 -9 0 -16 5 -16 10 0 12 2 12 34 0 17 -6 24
-14 20 -25 -5 -11 -2 -14 10 -9 9 3 16 10 16 15 0 6 8 5 19 -1 27 -14 36 -13
22 3 -7 9 -7 17 0 24 7 7 1 14 -20 21 -17 6 -31 16 -31 21 0 7 9 7 28 0 21 -8
24 -8 15 2 -6 6 -23 12 -37 12 -21 0 -26 5 -27 26 -1 17 -3 20 -6 9 -2 -10
-12 -18 -20 -18 -9 0 -24 -6 -32 -14 -14 -13 -19 -12 -40 5 -18 15 -21 22 -12
32 6 8 7 18 3 22 -4 5 1 5 11 2 16 -6 16 -4 3 28 -14 32 -14 35 2 35 10 0 28
7 40 16 20 14 23 14 28 -3 3 -10 9 -26 14 -35 6 -11 5 -18 -3 -21 -7 -3 -4 -6
6 -6 18 -1 23 14 7 24 -5 3 -10 22 -10 41 0 30 -2 33 -17 26 -10 -5 -27 -6
-38 -1 -11 4 -29 7 -40 7 -16 0 -15 -2 5 -8z"/>
<path d="M1756 2238 c-2 -7 -7 -31 -10 -52 -3 -22 -10 -43 -17 -46 -8 -5 -8
-10 -1 -14 14 -8 32 25 32 59 0 15 4 24 10 20 6 -4 8 -11 4 -16 -3 -5 -2 -9 3
-8 19 3 52 -14 46 -24 -3 -5 -1 -7 5 -3 15 9 21 -15 9 -42 -7 -15 -16 -20 -27
-17 -12 4 -23 -4 -35 -22 -18 -26 -18 -27 6 -42 13 -9 35 -26 47 -39 19 -18
21 -26 12 -37 -10 -12 -7 -14 18 -12 17 1 28 5 26 8 -2 4 5 9 16 12 26 7 26
27 1 34 -11 3 -22 12 -25 20 -5 11 -2 13 10 9 9 -4 23 -1 32 6 8 7 18 12 21
11 3 -1 5 6 3 15 -1 9 5 5 13 -10 22 -39 28 -35 11 7 -14 32 -14 35 3 35 20 0
64 -47 56 -60 -3 -4 2 -15 10 -23 20 -21 19 -27 -6 -27 -16 0 -19 4 -14 21 6
16 4 20 -6 14 -11 -6 -12 -5 -2 5 10 11 9 17 -4 32 -23 25 -36 23 -21 -4 20
-37 18 -51 -10 -76 -26 -24 -41 -59 -20 -46 7 4 8 2 4 -4 -4 -7 -18 -9 -32 -6
-19 5 -24 2 -24 -12 0 -17 -1 -16 -15 2 -14 18 -14 18 -9 -6 3 -14 6 -32 8
-40 2 -8 7 -15 12 -15 21 -1 36 -19 31 -41 -2 -13 1 -25 7 -28 6 -2 4 -5 -5
-5 -10 -1 -19 9 -23 23 -6 25 -36 44 -36 23 0 -8 -4 -6 -10 3 -6 10 -10 11
-10 3 0 -7 -11 -13 -25 -13 -27 0 -49 -30 -42 -58 3 -11 7 -5 12 16 7 30 11
33 37 30 16 -3 31 -1 34 4 10 15 23 8 36 -19 9 -17 20 -27 31 -25 9 2 17 -2
17 -7 0 -5 -12 -7 -27 -5 -36 7 -45 14 -39 30 3 8 1 14 -3 14 -5 0 -12 -7 -15
-16 -4 -9 -13 -14 -21 -10 -13 5 -14 2 -4 -15 6 -11 8 -28 4 -37 -3 -9 -3 -13
1 -9 4 4 14 1 22 -6 13 -10 15 -9 10 11 -4 14 -2 22 4 20 15 -5 19 -38 8 -57
-5 -9 -10 -11 -10 -4 0 7 -11 9 -30 6 -30 -4 -31 -3 -28 31 1 20 -2 40 -7 45
-7 7 -9 -10 -7 -44 4 -52 4 -54 28 -45 15 6 24 6 24 0 0 -6 9 -10 19 -10 19 0
31 18 31 50 0 9 7 23 15 30 9 8 15 9 15 2 0 -6 -5 -14 -11 -18 -8 -4 -3 -12
12 -20 18 -10 20 -13 7 -14 -14 0 -16 -5 -9 -22 6 -16 4 -32 -7 -50 -20 -34
-26 -35 -57 -3 -14 13 -25 20 -25 15 0 -6 9 -19 19 -29 11 -11 16 -23 13 -28
-4 -4 -3 -5 2 -1 4 4 18 -5 31 -20 22 -26 23 -26 50 -8 l27 18 -6 -29 c-7 -28
-6 -29 31 -26 22 2 32 0 23 -4 -8 -5 -16 -19 -18 -33 -2 -23 -1 -23 18 8 11
17 24 32 30 32 15 0 12 -18 -4 -27 -7 -4 -18 -18 -25 -31 -9 -18 -16 -20 -30
-12 -10 5 -21 7 -24 4 -3 -3 -13 5 -22 19 -9 14 -25 27 -36 30 -14 4 -18 10
-13 19 4 7 4 10 0 6 -7 -6 -77 42 -112 77 -25 25 -42 18 -38 -15 3 -21 -2 -33
-18 -45 -13 -8 -17 -15 -10 -15 6 0 12 -10 12 -22 0 -17 3 -20 9 -9 5 8 16 11
24 8 9 -3 17 1 20 13 3 11 1 20 -4 22 -5 2 -11 19 -15 38 -5 34 -5 34 8 10 8
-14 20 -26 28 -26 8 -1 19 -2 24 -3 4 0 1 -12 -8 -26 -24 -36 -19 -40 9 -8 22
25 25 26 26 8 3 -39 -3 -60 -19 -74 -15 -12 -15 -13 6 -8 12 3 20 1 16 -4 -3
-5 -12 -9 -21 -9 -9 0 -13 -6 -9 -15 3 -9 0 -15 -9 -15 -18 0 -19 12 -4 27 8
8 8 13 0 17 -6 4 -11 3 -11 -3 0 -6 -7 -8 -15 -5 -8 4 -15 2 -16 -2 0 -5 -2
-17 -4 -27 -2 -9 1 -15 5 -12 5 3 12 -4 15 -16 6 -17 12 -20 33 -15 15 3 36 8
48 11 11 3 29 -2 40 -9 18 -14 18 -15 -8 -21 -16 -4 -26 -11 -23 -16 3 -4 22
2 42 14 l37 21 -32 8 c-35 9 -41 30 -18 61 18 24 51 9 60 -28 7 -26 20 -32 31
-14 4 5 17 14 30 19 12 5 25 18 28 29 3 12 1 19 -4 15 -16 -10 -9 6 12 27 29
29 11 49 -41 42 -44 -6 -49 2 -30 51 11 30 35 33 68 10 12 -8 26 -13 31 -10 4
3 14 33 21 66 11 53 11 63 -2 77 -12 12 -20 13 -36 4 -11 -6 -32 -11 -45 -11
-20 0 -26 6 -30 33 -2 17 -3 34 -1 36 3 3 48 2 94 -2 21 -2 25 2 22 23 -5 36
-32 119 -42 125 -12 8 -38 -5 -44 -21 -3 -8 -2 -13 3 -9 5 3 12 -1 14 -7 3 -7
6 -3 6 10 1 32 17 27 30 -9 15 -43 13 -49 -4 -19 l-14 25 -1 -25 c0 -20 -2
-22 -10 -10 -6 10 -8 4 -4 -21 5 -32 3 -37 -17 -42 -37 -10 -47 -8 -52 11 -4
16 -5 16 -6 0 -1 -15 -5 -16 -26 -6 -14 6 -25 19 -25 28 0 10 -7 23 -15 30
-14 11 -22 60 -10 60 3 0 15 -6 27 -12 44 -26 56 -40 50 -62 -6 -24 -3 -22 21
16 13 22 14 26 3 22 -9 -4 -24 8 -39 33 l-25 38 27 12 c14 7 38 12 54 13 30 0
36 20 12 40 -8 7 -12 17 -9 22 9 15 -47 68 -71 68 -14 0 -27 -11 -38 -35 -9
-19 -21 -35 -25 -35 -15 0 -62 48 -62 63 0 16 26 41 53 50 9 4 17 11 17 16 0
15 -63 56 -81 53 -10 -2 -21 2 -25 9 -5 8 -3 10 7 4 10 -5 11 -5 4 2 -18 19
-55 25 -59 11z"/>
<path d="M3961 2198 c-11 -29 -8 -34 32 -53 18 -8 54 -35 80 -58 l49 -42 -26
-27 c-16 -15 -34 -24 -45 -21 -23 6 -45 -21 -38 -47 4 -16 1 -20 -11 -16 -50
15 -69 13 -22 -2 30 -10 55 -23 54 -30 -1 -7 -2 -16 -2 -22 -3 -17 -100 -12
-128 7 -22 14 -27 14 -40 1 -11 -11 -12 -21 -5 -41 10 -25 11 -25 84 -20 82 6
98 -2 77 -42 -7 -14 -28 -28 -49 -33 l-36 -10 46 2 c25 0 45 6 45 11 -1 6 4
11 9 12 6 1 9 -5 7 -13 -2 -8 4 -14 13 -14 8 0 15 -6 15 -12 0 -9 3 -8 10 2
11 18 52 22 62 6 6 -8 8 -7 8 2 0 18 51 15 67 -5 13 -16 13 -16 3 5 -10 20
-19 22 -88 24 -73 1 -74 2 -27 8 l50 7 -56 1 c-52 2 -57 4 -61 27 -4 21 -1 25
19 25 13 0 33 -5 44 -10 13 -7 19 -7 19 -1 0 14 -34 22 -128 31 l-77 7 100 3
c55 2 83 5 63 7 -38 4 -48 16 -26 29 7 5 5 11 -7 21 -39 28 29 14 98 -21 37
-19 67 -30 67 -26 0 8 -79 50 -95 50 -5 0 -16 7 -25 15 -22 20 -15 55 16 78
23 17 24 17 24 0 0 -13 3 -14 11 -6 16 16 -11 49 -78 102 -46 36 -65 61 -47
61 3 0 37 -25 76 -55 70 -55 88 -64 88 -44 0 20 22 -4 41 -45 12 -27 19 -34
19 -20 0 11 -20 44 -45 73 -62 72 -56 89 6 21 28 -30 40 -40 26 -21 l-25 34
34 24 c45 30 63 30 60 -2 -2 -13 1 -22 5 -19 12 7 11 45 -1 64 -5 8 -10 10
-10 4 0 -7 -8 -14 -17 -18 -10 -3 -32 -15 -50 -25 l-32 -20 -21 29 c-12 17
-28 30 -35 30 -28 0 -26 -23 5 -55 59 -61 27 -59 -51 2 -41 33 -81 63 -89 66
-11 4 -11 6 -2 6 18 1 5 21 -14 21 -8 0 -18 -10 -23 -22z"/>
<path d="M1113 2078 c-4 -7 -8 -20 -8 -28 0 -8 -5 -14 -12 -13 -6 1 -14 -4
-17 -12 -3 -10 0 -12 11 -8 11 4 14 2 11 -8 -3 -8 -11 -13 -17 -11 -7 1 -10
-2 -6 -8 3 -5 19 -10 35 -10 36 0 47 -17 26 -38 -14 -15 -18 -14 -45 12 -29
27 -51 28 -51 2 0 -8 -7 -19 -15 -26 -8 -7 -15 -24 -15 -39 0 -20 2 -23 10
-11 6 10 10 11 10 3 0 -20 -4 -28 -13 -25 -5 1 -6 -1 -3 -6 3 -5 19 -7 37 -4
17 3 26 8 20 12 -7 3 -9 15 -5 26 6 18 6 18 -9 -1 -14 -17 -16 -18 -17 -3 0
28 12 51 20 38 5 -8 9 -7 13 4 4 9 1 15 -5 13 -7 -1 -14 6 -16 16 -5 25 11 21
43 -13 26 -27 27 -33 18 -64 -12 -38 -5 -56 23 -61 10 -2 21 -4 24 -5 3 -1 15
-1 27 0 18 1 20 -3 16 -22 -3 -13 -9 -27 -13 -33 -9 -14 -20 -45 -15 -45 6 0
35 62 35 77 0 16 12 17 28 1 9 -9 12 -9 12 0 0 7 -7 15 -15 18 -8 4 -15 13
-15 20 0 8 -7 17 -15 20 -21 8 -19 27 4 48 22 20 25 57 4 49 -9 -3 -11 0 -7
10 7 19 -14 33 -28 19 -12 -12 -60 26 -51 41 3 6 1 7 -5 3 -8 -5 -11 2 -9 23
4 34 17 55 17 27 0 -9 4 -15 10 -11 10 6 2 35 -10 35 -5 0 -12 -6 -17 -12z"/>
<path d="M1566 1886 c-4 -17 -8 -40 -9 -50 -3 -26 -54 -76 -78 -76 -23 0 -25
-25 -3 -34 11 -4 15 -16 12 -43 -3 -37 -2 -38 27 -35 17 2 49 3 73 2 l42 0 0
37 c-1 21 0 49 2 63 2 18 -1 24 -12 23 -8 -1 -26 6 -40 17 l-25 20 25 0 c25 1
25 1 3 10 -24 10 -30 25 -13 35 6 3 10 1 10 -5 0 -7 8 -9 21 -5 14 5 25 1 35
-12 9 -10 13 -13 10 -7 -3 7 1 15 10 18 8 3 12 10 9 16 -3 5 0 10 8 10 21 0
31 -32 13 -42 -8 -5 -22 -15 -29 -23 -13 -13 -17 -12 -30 8 -13 19 -15 19 -13
3 1 -10 11 -23 20 -28 15 -8 25 -4 49 20 29 30 30 31 14 56 -10 14 -17 32 -17
39 0 10 -15 14 -54 14 -53 0 -54 -1 -60 -31z"/>
<path d="M3858 1733 c-10 -2 -15 -10 -11 -19 3 -8 0 -14 -5 -14 -6 0 -13 8
-16 18 -2 9 -4 6 -3 -8 2 -17 7 -24 17 -21 80 21 130 31 157 31 28 0 34 -4 41
-32 8 -30 6 -34 -17 -45 -14 -7 -36 -12 -48 -13 -27 0 -39 -18 -24 -33 9 -9
11 -8 6 6 -6 13 -2 17 14 17 12 0 21 -6 21 -15 0 -8 -5 -15 -12 -15 -6 0 -9
-2 -6 -6 3 -3 21 4 39 15 39 24 49 26 49 9 0 -6 8 -20 17 -30 17 -19 16 -21
-28 -61 -25 -23 -38 -36 -29 -29 19 14 30 16 30 4 0 -9 -72 -52 -86 -52 -4 0
1 7 12 15 17 13 15 13 -16 1 -39 -16 -45 -33 -17 -50 14 -9 21 -8 30 4 19 24
82 70 97 70 7 0 22 8 32 17 18 16 21 14 58 -25 l40 -41 -32 -66 c-27 -55 -30
-67 -18 -75 20 -13 26 -6 56 60 15 33 30 60 34 60 4 0 24 -7 44 -15 36 -15 37
-15 26 5 -6 11 -13 20 -16 20 -3 0 -2 -4 1 -10 9 -15 -9 -12 -31 5 -19 15 -19
15 1 9 l20 -7 -20 16 c-16 13 -17 16 -4 17 8 0 21 -6 28 -12 11 -11 12 -10 6
1 -6 10 -2 12 16 6 19 -5 21 -4 9 4 -10 7 -11 11 -2 11 18 0 15 21 -5 36 -15
10 -22 8 -44 -17 -15 -17 -42 -58 -60 -92 -44 -82 -49 -57 -6 30 32 63 62 164
36 120 -6 -9 -14 -15 -20 -12 -13 8 -11 -9 2 -22 8 -8 7 -17 -3 -32 -7 -11
-15 -21 -18 -21 -4 0 -21 16 -40 35 -30 31 -32 50 -2 25 9 -7 9 -7 2 2 -16 19
-12 32 5 18 13 -11 14 -10 9 4 -5 12 1 18 25 22 30 6 35 13 32 44 -2 13 -1 13
8 0 8 -12 11 -12 17 4 5 14 9 15 15 4 7 -10 9 -10 9 3 0 8 19 25 43 36 25 13
35 22 24 22 -10 1 -39 -11 -65 -26 -43 -25 -45 -25 -28 -5 l20 23 -35 -15
c-22 -9 -35 -22 -37 -36 -2 -14 0 -20 7 -16 6 4 9 1 5 -7 -5 -13 -46 -37 -62
-37 -4 0 4 10 18 21 l25 21 -25 -15 c-14 -8 -24 -21 -22 -27 2 -8 -3 -10 -13
-6 -9 3 -14 2 -11 -3 6 -10 -24 -25 -32 -16 -3 3 1 5 8 5 7 0 10 3 7 7 -4 3
-2 12 5 20 9 11 8 13 -3 11 -9 -2 -13 4 -11 15 2 9 -2 16 -9 15 -6 -2 -14 3
-17 11 -2 8 0 11 6 7 5 -3 12 1 16 9 8 21 21 19 35 -7 10 -21 11 -21 6 -2 -3
13 0 21 8 21 9 0 13 -8 10 -21 -3 -20 -3 -21 6 -1 5 11 10 23 10 26 2 16 -42
15 -94 -3 -31 -10 -61 -18 -66 -16 -6 2 22 14 61 27 38 13 70 28 70 33 0 5
-13 2 -30 -7 -45 -23 -62 -20 -59 13 5 44 -4 49 -68 41 -32 -4 -71 -7 -88 -7
l-30 0 30 8 c27 7 27 8 5 8 -14 0 -33 -2 -42 -5z"/>
<path d="M4617 1683 c-4 -4 5 -19 20 -35 l27 -28 -32 6 c-20 4 -32 3 -32 -4 0
-6 7 -9 16 -5 14 5 14 3 3 -15 -11 -18 -11 -28 0 -57 15 -43 7 -60 -10 -22 -7
15 -16 24 -21 21 -5 -3 -6 5 -3 19 4 16 1 32 -9 43 -9 11 -23 28 -31 39 -14
19 -15 18 -9 -19 4 -23 3 -37 -2 -33 -5 3 -9 -7 -8 -21 0 -21 6 -28 28 -30 27
-3 33 -28 11 -44 -6 -5 -5 -8 4 -8 11 0 11 -3 0 -17 -13 -16 -12 -17 3 -4 10
7 15 17 12 22 -3 5 0 9 6 9 6 0 8 5 5 10 -3 6 -4 10 -1 10 3 0 10 -10 17 -21
9 -17 8 -24 -2 -31 -10 -7 -7 -7 8 -3 16 4 25 0 32 -14 7 -12 7 -22 2 -26 -5
-3 -11 1 -13 8 -2 11 -10 10 -33 -6 -16 -10 -21 -16 -10 -12 11 3 23 7 27 8 5
1 19 -22 32 -50 14 -29 21 -53 17 -53 -5 0 -14 12 -20 28 -19 45 -38 65 -53
56 -21 -14 -59 -12 -54 3 3 7 1 13 -4 13 -6 0 -10 -6 -10 -12 0 -7 -3 -23 -6
-36 l-7 -23 39 20 c21 12 44 21 51 21 16 0 73 -114 73 -146 0 -29 24 -42 45
-24 16 14 21 60 6 60 -11 0 -65 85 -75 118 -6 17 -3 22 10 22 13 0 12 6 -11
36 -15 19 -24 38 -21 41 3 4 12 -1 19 -11 12 -16 14 -16 32 6 11 13 13 17 5
11 -21 -19 -34 -16 -19 5 13 15 12 16 -2 4 -25 -19 -34 15 -12 42 10 12 11 15
3 9 -8 -7 -20 -13 -28 -13 -12 0 -12 3 -1 17 10 11 10 14 2 9 -8 -4 -13 -1
-13 9 0 18 29 32 39 19 3 -5 23 -20 43 -34 20 -13 34 -29 31 -35 -4 -5 -2 -7
2 -2 5 4 25 -7 44 -25 20 -18 27 -23 18 -11 -17 19 -17 23 -3 40 9 10 21 26
28 36 12 16 17 16 88 -4 41 -11 79 -25 85 -30 5 -5 16 -9 25 -8 10 0 11 2 3 6
-14 5 -18 35 -6 46 3 4 12 2 20 -5 11 -9 12 -7 7 6 -5 12 -14 16 -28 12 -11
-3 -30 -6 -41 -7 -11 0 -14 -3 -7 -6 22 -9 13 -25 -10 -17 -31 9 -35 14 -19
23 9 6 5 10 -14 15 -15 4 -30 5 -33 1 -3 -3 2 -5 11 -5 10 0 17 -4 17 -9 0 -9
-11 -9 -71 4 -23 5 -30 0 -49 -29 -12 -20 -26 -36 -31 -36 -5 0 2 19 16 43 17
28 19 34 6 19 -14 -15 -21 -18 -25 -10 -3 7 -3 2 -1 -12 6 -25 5 -25 -10 3 -9
15 -21 27 -27 27 -6 0 -4 8 5 18 10 10 17 23 17 28 0 4 -7 -2 -16 -14 -14 -21
-42 -33 -29 -13 3 5 1 12 -5 16 -17 11 -11 24 10 20 11 -2 20 0 20 6 0 5 11 9
25 9 14 0 23 -5 21 -12 -1 -7 -1 -10 1 -5 3 4 18 7 35 7 23 0 29 -4 24 -15 -3
-8 3 -19 14 -25 28 -15 37 -12 14 4 -10 8 -16 18 -12 22 5 4 16 0 26 -10 26
-23 54 -11 50 23 -3 30 -44 43 -54 18 -5 -15 -14 -15 -74 -1 -82 18 -96 17
-113 -10 -16 -23 -46 -39 -32 -17 3 5 -4 12 -15 16 -11 4 -18 11 -15 16 7 11
1 12 -8 2z"/>
<path d="M3397 1663 c-4 -3 -7 -14 -7 -24 0 -13 -5 -17 -17 -12 -16 6 -16 5
-4 -10 8 -10 11 -27 7 -42 -4 -17 -1 -30 13 -44 19 -19 19 -19 42 5 30 32 73
32 95 -1 14 -21 15 -31 5 -51 -20 -45 -33 -52 -53 -32 -10 10 -26 18 -35 17
-13 0 -11 -3 7 -10 22 -9 39 -26 40 -40 0 -3 -16 -22 -35 -44 -20 -21 -33 -45
-30 -53 3 -7 5 -16 5 -18 0 -3 5 -2 10 1 12 7 40 -18 40 -36 0 -7 -3 -9 -7 -6
-3 4 -17 -9 -30 -28 -16 -24 -31 -35 -48 -35 -14 0 -26 -6 -26 -12 -1 -7 -3
-24 -4 -37 -1 -13 -10 -28 -18 -33 -10 -5 -14 -15 -10 -25 4 -10 2 -14 -5 -9
-6 3 -13 3 -16 -2 -3 -5 2 -9 10 -9 9 0 21 11 26 23 6 13 17 25 24 28 8 3 4
-9 -9 -31 -12 -20 -15 -33 -8 -29 10 7 11 3 6 -14 -5 -15 -4 -20 4 -16 15 10
14 -7 -1 -24 -7 -8 -3 -6 10 5 17 14 19 21 10 27 -10 6 -10 10 2 18 13 9 7 14
-12 11 -12 -2 -9 17 3 24 5 4 14 18 19 31 5 13 16 24 25 24 8 0 18 12 21 27 7
25 8 25 15 8 5 -14 8 -8 8 23 1 27 5 41 11 37 6 -4 8 -10 5 -15 -3 -5 -1 -11
5 -15 5 -3 10 -16 9 -28 0 -21 -1 -21 -9 -2 -6 13 -9 15 -9 5 0 -8 8 -26 19
-40 11 -14 20 -20 20 -13 0 7 11 24 25 39 30 33 31 48 5 99 -18 36 -20 37 -20
13 0 -14 7 -28 15 -32 21 -8 19 -49 -3 -69 -28 -26 -34 -20 -17 18 8 20 10 33
5 30 -6 -4 -10 8 -10 27 -1 33 -1 33 -14 9 -12 -21 -13 -15 -13 55 0 54 2 69
7 49 l8 -30 1 33 c0 18 5 31 10 28 5 -4 15 7 23 24 15 34 20 36 37 16 22 -26
9 -69 -26 -91 -33 -20 -42 -35 -22 -35 6 0 24 13 40 29 37 37 39 82 5 112 -13
12 -27 36 -31 55 -7 37 -29 54 -73 54 -40 0 -77 40 -68 74 6 26 5 31 -7 19z"/>
<path d="M1513 1597 c-3 -6 -1 -7 5 -4 5 4 21 3 34 -2 20 -8 12 -16 -13 -13
-4 1 -5 -8 -2 -19 4 -12 0 -25 -8 -30 -11 -7 -10 -9 5 -9 11 0 16 -3 13 -6 -3
-4 -2 -15 4 -25 5 -11 6 -19 1 -19 -15 0 -33 26 -24 35 4 5 2 5 -4 2 -6 -4
-20 0 -30 8 -18 14 -18 14 4 30 23 17 29 35 12 35 -5 0 -10 -7 -10 -15 0 -8
-7 -15 -15 -15 -8 0 -15 -9 -15 -20 0 -11 5 -20 11 -20 5 0 7 -4 4 -10 -3 -5
0 -7 8 -4 33 12 45 -48 21 -109 -3 -10 -1 -17 6 -17 6 0 9 -4 6 -8 -2 -4 4 -9
15 -9 18 -2 18 0 -3 17 -14 11 -18 19 -10 20 9 0 12 10 10 28 -2 21 1 26 14
24 12 -2 16 2 12 11 -5 15 35 47 61 47 20 0 30 26 17 43 -6 6 -12 23 -14 36
-3 22 -8 24 -56 26 -29 1 -55 -3 -59 -8z"/>
<path d="M1205 1571 c-3 -6 -14 -8 -25 -6 -12 2 -18 0 -14 -6 3 -6 -2 -16 -12
-24 -15 -11 -20 -11 -29 2 -9 12 -13 11 -29 -6 -10 -11 -23 -18 -29 -14 -5 3
-7 0 -5 -8 3 -8 1 -24 -3 -36 -13 -34 7 -28 21 7 21 51 36 56 55 16 9 -19 13
-40 9 -47 -4 -7 -3 -9 2 -6 13 7 26 -2 47 -33 19 -27 22 -44 7 -35 -6 3 -7 -1
-4 -9 7 -18 -11 -22 -21 -6 -4 6 -10 8 -15 5 -5 -3 -11 -1 -15 5 -3 5 -10 10
-15 10 -15 0 -1 -24 25 -43 23 -16 24 -16 18 -1 -4 11 -3 15 5 10 12 -7 12
-46 0 -46 -4 0 -13 9 -20 20 -7 11 -18 20 -25 20 -11 0 -18 20 -14 43 0 4 -8
7 -19 7 -11 0 -20 7 -20 15 0 8 5 15 10 15 6 0 10 -3 10 -7 0 -5 14 -16 30
-25 17 -9 30 -13 30 -7 0 5 -11 14 -25 19 -14 5 -25 14 -25 20 0 5 -9 10 -20
10 -13 0 -20 -7 -20 -20 0 -10 9 -24 20 -30 11 -6 20 -15 20 -21 0 -17 62 -70
78 -67 9 2 16 16 17 36 2 18 4 34 6 36 2 1 19 13 37 25 18 12 29 27 26 33 -4
5 3 5 16 -2 18 -9 21 -9 15 0 -5 8 -3 11 6 8 8 -3 14 -10 14 -15 0 -6 4 -15 9
-20 5 -5 6 -3 2 5 -4 7 -1 12 8 12 9 0 16 -5 16 -10 0 -7 6 -7 19 0 14 7 21 6
23 -2 3 -9 6 -9 12 0 4 7 2 12 -3 12 -19 0 -12 29 9 40 11 6 20 20 20 31 0 11
-4 17 -10 14 -12 -8 -61 25 -54 36 3 5 0 10 -5 10 -6 1 -15 2 -20 3 -5 0 -13
5 -18 10 -4 5 -3 6 3 3 7 -4 15 0 18 8 4 13 2 14 -14 5 -16 -9 -18 -15 -10
-30 7 -13 6 -20 -2 -22 -19 -7 -58 3 -58 14 0 6 7 7 16 4 21 -8 35 1 28 18 -9
24 -56 -4 -49 -29 16 -50 16 -66 4 -81 -12 -14 -14 -14 -27 3 -13 16 -13 15
-7 -16 6 -26 4 -32 -6 -29 -9 3 -13 16 -11 35 3 25 -3 35 -28 53 -27 19 -34
20 -42 9 -8 -12 -9 -11 -5 1 2 8 11 15 20 15 8 0 19 4 23 8 13 13 24 7 24 -13
0 -11 6 -20 14 -20 8 0 17 -12 21 -27 6 -25 7 -26 17 -9 8 15 6 23 -13 40 -36
32 -50 61 -36 75 6 6 8 11 5 11 -4 0 -9 -4 -13 -9z"/>
<path d="M1620 1420 c-8 -5 -24 -7 -35 -4 -16 4 -21 0 -22 -15 -1 -12 4 -21
13 -21 8 0 14 -7 14 -15 0 -8 5 -15 10 -15 6 0 5 -8 -2 -20 -15 -24 -22 -25
-42 -5 -16 16 -31 20 -22 6 3 -5 -1 -14 -9 -21 -8 -7 -16 -9 -16 -4 -4 18 -6
40 -9 69 -2 24 -4 20 -11 -20 -5 -27 -6 -58 -3 -67 4 -15 -1 -18 -35 -18 -23
0 -41 -5 -41 -11 0 -7 16 -8 45 -3 45 6 45 6 45 -24 0 -16 -9 -41 -21 -56 -24
-31 -18 -46 19 -45 21 1 22 2 7 6 -11 3 -24 10 -30 15 -7 8 -4 9 8 5 10 -4 16
-3 13 2 -3 5 0 11 7 14 8 3 13 19 12 41 0 20 4 36 10 36 5 1 32 2 59 4 31 3
44 1 35 -5 -9 -6 3 -9 35 -9 47 0 48 -1 41 -27 -5 -23 -4 -25 9 -14 11 9 20
10 36 1 23 -12 55 4 44 22 -4 6 -10 6 -17 -1 -6 -6 -15 -11 -21 -11 -5 0 1 9
14 20 27 24 40 25 40 6 0 -8 4 -17 9 -20 5 -4 7 3 4 14 -3 11 -9 23 -14 26
-17 10 -9 32 14 38 14 4 26 0 34 -11 10 -13 15 -14 28 -3 8 7 15 9 15 4 0 -5
12 -10 28 -11 19 -1 33 6 46 25 l19 27 -24 -22 c-32 -29 -48 -30 -23 -1 19 21
19 21 -1 14 -11 -4 -28 -9 -38 -11 -9 -2 -22 -7 -27 -10 -6 -3 -10 1 -10 9 0
9 -6 13 -14 10 -8 -3 -17 -1 -20 4 -3 6 -15 8 -27 5 -14 -4 -28 2 -44 20 -13
13 -21 27 -19 30 3 3 -4 11 -16 17 -15 8 -20 8 -16 1 15 -24 -13 -9 -33 17
-20 26 -20 26 -21 5 0 -13 5 -23 11 -23 6 0 9 -5 7 -12 -5 -14 -58 -30 -58
-17 0 5 10 9 22 9 21 0 21 0 2 15 -10 8 -14 15 -8 15 6 0 11 7 11 15 0 8 -1
15 -1 15 -1 0 -8 -5 -16 -10z"/>
<path d="M2600 990 c-24 -8 -24 -8 6 -9 22 -1 37 -10 53 -32 l22 -30 -35 6
c-32 7 -34 6 -29 -17 13 -62 43 -85 87 -68 25 9 56 -4 56 -24 0 -7 9 -25 21
-40 18 -23 25 -25 62 -19 23 3 58 12 77 20 34 13 34 13 5 9 -17 -3 -37 -1 -45
4 -10 6 -21 3 -35 -9 -15 -14 -26 -17 -42 -10 -34 13 -44 79 -12 79 6 0 7 -5
3 -12 -5 -7 -3 -8 5 -3 9 5 10 10 2 18 -8 8 -14 8 -23 -1 -16 -16 -31 -15 -22
1 4 6 4 9 -1 5 -9 -8 -40 30 -32 38 3 3 19 -2 36 -10 34 -18 45 -20 37 -7 -3
5 2 15 12 22 15 12 16 12 5 -2 -15 -19 -8 -29 21 -29 20 0 20 0 0 15 -10 8
-15 15 -10 15 5 0 3 7 -4 15 -10 12 -16 12 -26 4 -8 -6 -29 -9 -48 -7 -19 2
-32 0 -30 -4 3 -4 1 -8 -5 -8 -13 0 -32 35 -24 43 3 4 1 13 -5 20 -7 8 -8 18
-4 22 4 5 2 5 -5 1 -6 -3 -14 -2 -18 4 -7 11 -19 11 -55 0z"/>
</g>
</svg>
